<?xml version="1.0" standalone="no"?>
<!DOCTYPE svg PUBLIC "-//W3C//DTD SVG 20010904//EN"
 "http://www.w3.org/TR/2001/REC-SVG-20010904/DTD/svg10.dtd">
<svg version="1.0" xmlns="http://www.w3.org/2000/svg"
 width="1024.000000pt" height="1024.000000pt" viewBox="0 0 1024.000000 1024.000000"
 preserveAspectRatio="xMidYMid meet">
<metadata>
Created by potrace 1.11, written by Peter Selinger 2001-2013
</metadata>
<g transform="translate(0.000000,1024.000000) scale(0.100000,-0.100000)"
fill="#000000" stroke="none">
<path d="M3745 8968 c-250 -45 -486 -202 -633 -420 -29 -42 -52 -79 -52 -81 0
-3 -12 -31 -27 -63 -15 -33 -28 -61 -28 -64 -1 -3 -7 -22 -14 -42 -11 -34 -16
-38 -49 -39 -51 -1 -122 -9 -207 -24 -49 -9 -126 -36 -194 -68 -254 -119 -488
-408 -536 -662 -21 -110 -26 -274 -11 -350 15 -74 16 -73 -59 -107 -38 -18
-72 -35 -75 -38 -3 -3 -27 -19 -55 -35 -159 -90 -322 -271 -418 -463 -152
-304 -169 -665 -46 -983 16 -42 29 -80 29 -86 0 -5 -39 -36 -88 -68 -107 -73
-262 -226 -323 -320 -83 -128 -148 -296 -164 -425 -4 -30 -9 -64 -12 -75 -7
-33 -6 -277 1 -325 60 -401 300 -737 652 -914 l70 -35 -2 -168 c-2 -93 1 -186
6 -208 5 -22 12 -60 16 -85 6 -46 34 -125 74 -215 42 -94 124 -210 209 -295
177 -176 336 -261 581 -311 69 -14 294 -19 346 -7 30 7 31 5 48 -45 83 -239
279 -452 531 -576 151 -75 267 -103 451 -107 160 -4 268 11 398 56 197 67 419
244 538 427 64 97 126 239 143 323 2 8 9 44 16 80 12 54 14 573 14 3005 0
1617 -4 2966 -8 2999 -25 204 -142 423 -301 565 -16 14 -36 33 -45 42 -39 38
-211 143 -251 154 -3 1 -14 5 -25 9 -56 22 -76 27 -145 40 -84 16 -278 18
-355 4z"/>
<path d="M6145 8965 c-193 -37 -344 -118 -497 -266 -142 -138 -224 -285 -264
-471 -18 -79 -18 -228 -19 -3048 0 -3201 -3 -3009 53 -3185 27 -86 84 -202
134 -270 108 -148 265 -284 413 -358 63 -31 170 -69 229 -81 11 -3 43 -9 70
-14 27 -6 108 -10 180 -10 137 0 239 16 366 58 177 59 373 199 490 350 19 25
38 46 42 48 5 2 8 8 8 13 0 5 15 32 32 61 18 29 46 87 63 129 28 69 33 75 55
71 38 -7 259 -7 310 0 115 17 232 52 330 101 36 17 67 34 70 38 3 3 32 23 65
44 58 38 255 227 255 245 0 5 6 15 13 22 55 58 153 271 171 374 3 16 8 38 10
49 16 83 21 222 10 341 l-6 73 72 35 c39 20 84 45 100 56 15 11 31 20 35 20
12 0 141 109 191 161 176 187 278 391 325 649 11 61 15 311 5 355 -2 11 -7 45
-11 75 -20 156 -98 342 -205 485 -52 70 -279 275 -304 275 -14 0 -66 44 -66
56 0 7 9 34 21 61 27 64 65 195 76 263 10 67 11 329 1 387 -35 204 -111 383
-230 542 -71 94 -211 225 -288 268 -19 11 -60 35 -90 53 -30 18 -57 32 -60 32
-10 -1 -70 30 -70 37 0 3 7 40 14 81 14 70 15 258 2 279 -3 4 -8 26 -10 47
-11 80 -60 202 -123 302 -58 92 -188 226 -286 295 -92 64 -231 126 -317 141
-14 2 -41 7 -60 11 -32 6 -113 13 -167 14 -17 1 -25 12 -39 54 -21 66 -95 217
-106 217 -4 0 -8 6 -8 13 0 20 -145 181 -202 224 -130 96 -180 125 -283 161
-143 50 -352 65 -500 37z"/>
</g>
</svg>
